mtllib materials.mtl
v -0.1163353 -0.3074042 0.007698908
v -0.1163353 -0.3074042 -0.6123011
v -0.1263353 -0.3074042 -0.6123011
v -0.1263353 -0.3074042 0.007698908
v 0.5036647 -0.3074043 0.007698908
v 0.5036649 0.3125957 0.007698908
v 0.5036649 0.3125957 -0.6123011
v 0.5036647 -0.3074043 -0.6123011
v -0.1163352 0.312596 0.007698908
v -0.1163352 0.312596 -0.6123011
v 0.5036649 0.3125957 0.7676988
v -0.1163352 0.312596 0.7676988
v 0.5036647 -0.3074043 0.7676989
v -0.1163353 -0.3074042 0.7676989
v -0.5063352 0.312596 0.007698908
v -0.5063353 -0.3074042 0.007698908
v -0.1263351 0.312596 -0.6123011
v -0.1263351 0.312596 0.007698908
v -0.5063353 -0.3074042 -0.6123011
v -0.5063352 0.312596 0.7676988
v -0.5063353 -0.3074042 0.7676989
v -0.5063351 0.312596 -0.6123011
v -0.5613356 0.3725957 0.4676987
v -0.5613357 0.3725954 0.8076987
v 0.5686651 0.3725954 0.8076987
v 0.5686651 0.3725957 0.4676987
v -0.5613357 1.382596 0.4676991
v 0.5686652 1.382596 0.4676991
v 0.5686653 1.382596 0.8076991
v -0.5613357 1.382596 0.8076991
v 0.4368284 0.2128135 -0.538247
v 0.4300483 0.2367369 0.6614953
v 0.4298607 0.3567127 0.6591019
v 0.4366409 0.3327893 -0.5406404
v -0.4231568 0.2113725 -0.5430783
v -0.4233443 0.3313485 -0.5454717
v -0.4301245 0.3552719 0.6542706
v -0.4299369 0.2352959 0.656664
v 0.5236648 0.7225958 0.5476987
v 0.5236648 1.342596 0.5476989
v 0.5236648 1.342596 0.4276989
v -0.5163352 1.342596 0.4276989
v -0.5163352 1.342596 0.5476989
v -0.5163352 0.7225956 0.5476987
v 0.5336648 0.4625958 0.4476987
v -0.5063352 0.4625958 0.4476987
v 0.5186648 0.2175957 -0.4323012
v 0.5186648 0.2000958 -0.4369903
v 0.4486648 0.2000958 -0.4369903
v 0.4486648 0.2175957 -0.4323012
v 0.5186648 0.1872848 -0.4498012
v 0.4486648 0.1872848 -0.4498012
v 0.5186648 0.1825956 -0.4673012
v 0.4486648 0.1825956 -0.4673012
v 0.5186648 0.1872848 -0.4848012
v 0.4486648 0.1872848 -0.4848012
v 0.5186648 0.2000958 -0.4976121
v 0.4486648 0.2000958 -0.4976121
v 0.5186648 0.2175957 -0.5023012
v 0.4486648 0.2175957 -0.5023012
v 0.5186648 0.2350956 -0.4976121
v 0.4486648 0.2350956 -0.4976121
v 0.5186648 0.2479066 -0.4848012
v 0.4486648 0.2479066 -0.4848012
v 0.5186648 0.2525958 -0.4673012
v 0.4486648 0.2525958 -0.4673012
v 0.5186648 0.2479066 -0.4498011
v 0.4486648 0.2479066 -0.4498011
v 0.5186648 0.2350956 -0.4369903
v 0.4486648 0.2350956 -0.4369903
v -0.5213352 0.2275959 -0.4623012
v -0.5213352 0.2450958 -0.4669903
v -0.4513352 0.2450958 -0.4669903
v -0.4513352 0.2275959 -0.4623012
v -0.5213352 0.2579068 -0.4798012
v -0.4513352 0.2579068 -0.4798012
v -0.5213352 0.262596 -0.4973012
v -0.4513352 0.262596 -0.4973012
v -0.5213352 0.2579068 -0.5148012
v -0.4513352 0.2579068 -0.5148012
v -0.5213352 0.2450958 -0.5276121
v -0.4513352 0.2450958 -0.5276121
v -0.5213352 0.2275959 -0.5323012
v -0.4513352 0.2275959 -0.5323012
v -0.5213352 0.210096 -0.5276121
v -0.4513352 0.210096 -0.5276121
v -0.5213352 0.1972851 -0.5148011
v -0.4513352 0.1972851 -0.5148011
v -0.5213352 0.1925958 -0.4973012
v -0.4513352 0.1925958 -0.4973012
v -0.5213352 0.1972851 -0.4798012
v -0.4513352 0.1972851 -0.4798012
v -0.5213352 0.210096 -0.4669903
v -0.4513352 0.210096 -0.4669903
v 0.3286647 -0.2374043 -0.5523011
v 0.3286647 0.2725958 -0.5523012
v 0.3286647 0.2725958 -0.6423011
v 0.3286647 -0.2374043 -0.6423011
v -0.3413352 -0.2374043 -0.5523012
v -0.3413352 -0.2374043 -0.6423012
v -0.3413352 0.2725958 -0.6423013
v -0.3413352 0.2725958 -0.5523012
v -0.4413352 -1.087404 -0.4823011
v -0.4413352 -0.2174041 -0.4823012
v -0.4413352 -0.2174041 -0.6323012
v -0.4413352 -1.087404 -0.6323012
v -0.5213352 -1.087404 -0.4823011
v -0.5213352 -1.087404 -0.6323012
v -0.5213352 -0.2174041 -0.6323013
v -0.5213352 -0.2174041 -0.4823012
v 0.5186647 -1.067404 -0.4823011
v 0.5186647 -0.1974041 -0.4823011
v 0.5186648 -0.1974041 -0.6323011
v 0.5186648 -1.067404 -0.6323012
v 0.4386647 -1.067404 -0.4823012
v 0.4386649 -1.067404 -0.6323012
v 0.4386649 -0.1974041 -0.6323012
v 0.4386647 -0.1974041 -0.4823012
v -0.4513353 -1.057404 0.7876988
v -0.4513353 -0.1874043 0.7876987
v -0.4513352 -0.1874043 0.6376987
v -0.4513352 -1.057404 0.6376988
v -0.5313352 -1.057404 0.7876988
v -0.5313352 -1.057404 0.6376988
v -0.5313352 -0.1874043 0.6376987
v -0.5313352 -0.1874043 0.7876987
v 0.5286647 -1.057404 0.7776988
v 0.5286647 -0.1874042 0.7776988
v 0.5286649 -0.1874042 0.6276988
v 0.5286649 -1.057404 0.6276988
v 0.4486647 -1.057404 0.7776987
v 0.4486649 -1.057404 0.6276987
v 0.4486649 -0.1874042 0.6276988
v 0.4486647 -0.1874042 0.7776988
vn -1.748456E-07 -1 -8.412073E-10
vn 1 -1.748456E-07 2.477135E-15
vn -1.748456E-07 -1 -1.532108E-14
vn 1.748456E-07 1 1.532108E-14
vn 2.477137E-15 1.532108E-14 -1
vn 1.748456E-07 1 4.452654E-09
vn 1 -1.445373E-07 2.477135E-15
vn -1.748456E-07 -1 4.452624E-09
vn -2.477137E-15 -1.532108E-14 1
vn 8.676939E-09 1.380395E-14 -1
vn -3.384009E-07 7.448899E-14 -1
vn 1.748456E-07 1 8.412073E-10
vn -3.384009E-07 4.384684E-14 1
vn -1.748456E-07 -1 -8.905293E-09
vn 1.748456E-07 1 8.164484E-09
vn 2.603084E-08 1.92273E-07 1
vn -1.748456E-07 -1 -8.164483E-09
vn -1 1.913406E-07 -2.477134E-15
vn -8.905276E-09 1.687812E-14 -1
vn 1.748456E-07 1 8.905293E-09
vn -8.905281E-09 -1.376403E-14 1
vn -1 1.748456E-07 -2.477135E-15
vn -1.192093E-07 -1 -3.496912E-07
vn 1.192093E-07 1 3.496912E-07
vn -1 1.192093E-07 0
vn 1 -1.192093E-07 0
vn 0 3.496912E-07 -1
vn 0 -3.496912E-07 1
vn 0.9999828 0.001675422 0.005617809
vn -0.9999828 -0.001675422 -0.005617809
vn 0.001563065 -0.9997998 0.01994531
vn -0.001563065 0.9997998 -0.01994531
vn 0.005650102 -0.01993619 -0.9997853
vn -0.005650102 0.01993619 0.9997853
vn 1 0 0
vn -1 0 0
vn -1.065725E-08 -0.3589795 0.9333455
vn 0 1 1.748456E-07
vn 5.990176E-09 -0.02272126 -0.9997419
vn 0 -1.748456E-07 1
vn 0.9977123 0.01284609 0.06637139
vn -0.9977123 -0.0128461 -0.0663714
vn 0 -1.748456E-07 1
vn -5.960465E-08 -0.5000002 0.8660253
vn -1.032383E-07 -0.8660256 0.4999998
vn -1.192093E-07 -1 -2.185569E-07
vn -1.032383E-07 -0.8660254 -0.5000002
vn -5.960466E-08 -0.5 -0.8660254
vn 1.042161E-14 2.622683E-07 -1
vn 5.960468E-08 0.5000005 -0.8660253
vn 1.032383E-07 0.8660256 -0.4999998
vn 1.192093E-07 1 1.867704E-07
vn 1.032383E-07 0.8660254 0.5000001
vn 5.960462E-08 0.4999997 0.8660256
vn 1 -1.192093E-07 0
vn -1 1.192093E-07 0
vn 0 0 1
vn -5.960464E-08 0.5000001 0.8660254
vn -1.032383E-07 0.8660256 0.5
vn -1.192093E-07 1 -4.371139E-08
vn -1.032383E-07 0.8660255 -0.5000001
vn -5.960465E-08 0.5000001 -0.8660254
vn 1.042161E-14 -8.742278E-08 -1
vn 5.960467E-08 -0.5000003 -0.8660253
vn 1.032383E-07 -0.8660256 -0.4999999
vn 1.192093E-07 -1 1.192488E-08
vn 1.032383E-07 -0.8660256 0.4999999
vn 5.960462E-08 -0.4999998 0.8660256
vn -1 -1.192093E-07 0
vn 1 1.192093E-07 0
vn 1 0 1.748456E-07
vn -1 0 -1.748456E-07
vn -1.748456E-07 1.192093E-07 1
vn 1.748456E-07 -1.192093E-07 -1
vn 0 -1 1.192093E-07
vn 0 1 -1.192093E-07
vn 1 0 1.748456E-07
vn -1 0 -1.748456E-07
vn -1.748456E-07 1.192093E-07 1
vn 1.748456E-07 -1.192093E-07 -1
vn 0 -1 1.192093E-07
vn 0 1 -1.192093E-07
vn 1 0 1.049073E-06
vn -1 0 -1.049073E-06
vn -1.049073E-06 -5.960437E-08 1
vn 1.049073E-06 5.960437E-08 -1
vn 1.136868E-13 -1 -5.960437E-08
vn -1.136868E-13 1 5.960437E-08
vn 1 0 1.748456E-07
vn -1 0 -1.748456E-07
vn -1.748456E-07 1.192093E-07 1
vn 1.748456E-07 -1.192093E-07 -1
vn 0 -1 1.192093E-07
vn 0 1 -1.192093E-07
vn 1 0 1.049073E-06
vn -1 0 -1.049073E-06
vn -1.049073E-06 -5.960437E-08 1
vn 1.049073E-06 5.960437E-08 -1
vn 1.136868E-13 -1 -5.960437E-08
vn -1.136868E-13 1 5.960437E-08
usemtl mat2
f 4//1 3//1 2//1 1//1
f 8//2 7//2 6//2 5//2
f 2//3 8//3 5//3 1//3
f 6//4 7//4 10//4 9//4
f 10//5 7//5 8//5 2//5
f 12//6 11//6 6//6 9//6
f 11//7 13//7 5//7 6//7
f 13//8 14//8 1//8 5//8
f 13//9 11//9 12//9 14//9
f 16//10 15//10 9//10 1//10
f 3//11 17//11 10//11 2//11
f 17//12 18//12 9//12 10//12
f 18//13 4//13 1//13 9//13
f 16//14 19//14 3//14 4//14
f 15//15 20//15 12//15 9//15
f 20//16 21//16 14//16 12//16
f 21//17 16//17 1//17 14//17
f 21//18 20//18 15//18 16//18
f 19//19 22//19 17//19 3//19
f 22//20 15//20 18//20 17//20
f 15//21 16//21 4//21 18//21
f 15//22 22//22 19//22 16//22
f 26//23 25//23 24//23 23//23
f 30//24 29//24 28//24 27//24
f 24//25 30//25 27//25 23//25
f 28//26 29//26 25//26 26//26
f 27//27 28//27 26//27 23//27
f 25//28 29//28 30//28 24//28
usemtl mat19
f 34//29 33//29 32//29 31//29
f 38//30 37//30 36//30 35//30
f 32//31 38//31 35//31 31//31
f 36//32 37//32 33//32 34//32
f 35//33 36//33 34//33 31//33
f 33//34 37//34 38//34 32//34
usemtl mat5
f 41//35 40//35 39//35
f 44//36 43//36 42//36
f 39//37 44//37 46//37 45//37
f 42//38 43//38 40//38 41//38
f 46//39 42//39 41//39 45//39
f 40//40 43//40 44//40 39//40
f 39//41 45//41 41//41
f 42//42 46//42 44//42
usemtl mat21
f 50//43 49//43 48//43 47//43
f 49//44 52//44 51//44 48//44
f 52//45 54//45 53//45 51//45
f 54//46 56//46 55//46 53//46
f 56//47 58//47 57//47 55//47
f 58//48 60//48 59//48 57//48
f 60//49 62//49 61//49 59//49
f 62//50 64//50 63//50 61//50
f 64//51 66//51 65//51 63//51
f 66//52 68//52 67//52 65//52
f 68//53 70//53 69//53 67//53
f 70//54 50//54 47//54 69//54
f 47//55 48//55 51//55 53//55 55//55 57//55 59//55 61//55 63//55 65//55 67//55 69//55
f 70//56 68//56 66//56 64//56 62//56 60//56 58//56 56//56 54//56 52//56 49//56 50//56
f 74//57 73//57 72//57 71//57
f 73//58 76//58 75//58 72//58
f 76//59 78//59 77//59 75//59
f 78//60 80//60 79//60 77//60
f 80//61 82//61 81//61 79//61
f 82//62 84//62 83//62 81//62
f 84//63 86//63 85//63 83//63
f 86//64 88//64 87//64 85//64
f 88//65 90//65 89//65 87//65
f 90//66 92//66 91//66 89//66
f 92//67 94//67 93//67 91//67
f 94//68 74//68 71//68 93//68
f 71//69 72//69 75//69 77//69 79//69 81//69 83//69 85//69 87//69 89//69 91//69 93//69
f 94//70 92//70 90//70 88//70 86//70 84//70 82//70 80//70 78//70 76//70 73//70 74//70
usemtl mat15
f 98//71 97//71 96//71 95//71
f 102//72 101//72 100//72 99//72
f 96//73 102//73 99//73 95//73
f 100//74 101//74 97//74 98//74
f 99//75 100//75 98//75 95//75
f 97//76 101//76 102//76 96//76
f 106//77 105//77 104//77 103//77
f 110//78 109//78 108//78 107//78
f 104//79 110//79 107//79 103//79
f 108//80 109//80 105//80 106//80
f 107//81 108//81 106//81 103//81
f 105//82 109//82 110//82 104//82
f 114//83 113//83 112//83 111//83
f 118//84 117//84 116//84 115//84
f 112//85 118//85 115//85 111//85
f 116//86 117//86 113//86 114//86
f 115//87 116//87 114//87 111//87
f 113//88 117//88 118//88 112//88
f 122//89 121//89 120//89 119//89
f 126//90 125//90 124//90 123//90
f 120//91 126//91 123//91 119//91
f 124//92 125//92 121//92 122//92
f 123//93 124//93 122//93 119//93
f 121//94 125//94 126//94 120//94
f 130//95 129//95 128//95 127//95
f 134//96 133//96 132//96 131//96
f 128//97 134//97 131//97 127//97
f 132//98 133//98 129//98 130//98
f 131//99 132//99 130//99 127//99
f 129//100 133//100 134//100 128//100
